<svg width="430" height="932" viewBox="0 0 430 932" fill="none" xmlns="http://www.w3.org/2000/svg">
    <g clip-path="url(#clip0_7_34)">
        <rect width="430" height="932" fill="black"/>
        <path d="M140.304 574.152C140.304 576.104 139.856 577.896 138.96 579.528C138.064 581.128 136.688 582.424 134.832 583.416C132.976 584.408 130.672 584.904 127.92 584.904H122.832V597H114.624V563.304H127.92C130.608 563.304 132.88 563.768 134.736 564.696C136.592 565.624 137.984 566.904 138.912 568.536C139.84 570.168 140.304 572.04 140.304 574.152ZM127.296 578.376C128.864 578.376 130.032 578.008 130.8 577.272C131.568 576.536 131.952 575.496 131.952 574.152C131.952 572.808 131.568 571.768 130.8 571.032C130.032 570.296 128.864 569.928 127.296 569.928H122.832V578.376H127.296ZM152.786 574.68C153.746 573.208 154.946 572.056 156.386 571.224C157.826 570.36 159.426 569.928 161.186 569.928V578.616H158.93C156.882 578.616 155.346 579.064 154.322 579.96C153.298 580.824 152.786 582.36 152.786 584.568V597H144.578V570.216H152.786V574.68ZM163.477 583.56C163.477 580.808 163.989 578.392 165.013 576.312C166.069 574.232 167.493 572.632 169.285 571.512C171.077 570.392 173.077 569.832 175.285 569.832C177.173 569.832 178.821 570.216 180.229 570.984C181.669 571.752 182.773 572.76 183.541 574.008V570.216H191.749V597H183.541V593.208C182.741 594.456 181.621 595.464 180.181 596.232C178.773 597 177.125 597.384 175.237 597.384C173.061 597.384 171.077 596.824 169.285 595.704C167.493 594.552 166.069 592.936 165.013 590.856C163.989 588.744 163.477 586.312 163.477 583.56ZM183.541 583.608C183.541 581.56 182.965 579.944 181.813 578.76C180.693 577.576 179.317 576.984 177.685 576.984C176.053 576.984 174.661 577.576 173.509 578.76C172.389 579.912 171.829 581.512 171.829 583.56C171.829 585.608 172.389 587.24 173.509 588.456C174.661 589.64 176.053 590.232 177.685 590.232C179.317 590.232 180.693 589.64 181.813 588.456C182.965 587.272 183.541 585.656 183.541 583.608ZM214.007 569.928C217.143 569.928 219.639 570.952 221.495 573C223.383 575.016 224.327 577.8 224.327 581.352V597H216.167V582.456C216.167 580.664 215.703 579.272 214.775 578.28C213.847 577.288 212.599 576.792 211.031 576.792C209.463 576.792 208.215 577.288 207.287 578.28C206.359 579.272 205.895 580.664 205.895 582.456V597H197.687V570.216H205.895V573.768C206.727 572.584 207.847 571.656 209.255 570.984C210.663 570.28 212.247 569.928 214.007 569.928ZM228.399 583.56C228.399 580.808 228.911 578.392 229.935 576.312C230.991 574.232 232.415 572.632 234.207 571.512C235.999 570.392 237.999 569.832 240.207 569.832C242.095 569.832 243.743 570.216 245.151 570.984C246.591 571.752 247.695 572.76 248.463 574.008V570.216H256.671V597H248.463V593.208C247.663 594.456 246.543 595.464 245.103 596.232C243.695 597 242.047 597.384 240.159 597.384C237.983 597.384 235.999 596.824 234.207 595.704C232.415 594.552 230.991 592.936 229.935 590.856C228.911 588.744 228.399 586.312 228.399 583.56ZM248.463 583.608C248.463 581.56 247.887 579.944 246.735 578.76C245.615 577.576 244.239 576.984 242.607 576.984C240.975 576.984 239.583 577.576 238.431 578.76C237.311 579.912 236.751 581.512 236.751 583.56C236.751 585.608 237.311 587.24 238.431 588.456C239.583 589.64 240.975 590.232 242.607 590.232C244.239 590.232 245.615 589.64 246.735 588.456C247.887 587.272 248.463 585.656 248.463 583.608ZM293.757 591.048H281.181L279.165 597H270.573L282.765 563.304H292.269L304.461 597H295.773L293.757 591.048ZM291.645 584.712L287.469 572.376L283.341 584.712H291.645ZM316.379 563.304V597H308.171V563.304H316.379Z" fill="white"/>
        <path d="M147.487 621.88L143.807 628.968V633H141.983V628.968L138.287 621.88H140.319L142.895 627.336L145.471 621.88H147.487ZM152.758 633.144C151.926 633.144 151.174 632.957 150.502 632.584C149.83 632.2 149.302 631.667 148.918 630.984C148.534 630.291 148.342 629.491 148.342 628.584C148.342 627.688 148.54 626.893 148.934 626.2C149.329 625.507 149.868 624.973 150.55 624.6C151.233 624.227 151.996 624.04 152.838 624.04C153.681 624.04 154.444 624.227 155.126 624.6C155.809 624.973 156.348 625.507 156.742 626.2C157.137 626.893 157.334 627.688 157.334 628.584C157.334 629.48 157.132 630.275 156.726 630.968C156.321 631.661 155.766 632.2 155.062 632.584C154.369 632.957 153.601 633.144 152.758 633.144ZM152.758 631.56C153.228 631.56 153.665 631.448 154.07 631.224C154.486 631 154.822 630.664 155.078 630.216C155.334 629.768 155.462 629.224 155.462 628.584C155.462 627.944 155.34 627.405 155.094 626.968C154.849 626.52 154.524 626.184 154.118 625.96C153.713 625.736 153.276 625.624 152.806 625.624C152.337 625.624 151.9 625.736 151.494 625.96C151.1 626.184 150.785 626.52 150.55 626.968C150.316 627.405 150.198 627.944 150.198 628.584C150.198 629.533 150.438 630.269 150.918 630.792C151.409 631.304 152.022 631.56 152.758 631.56ZM167.122 624.184V633H165.298V631.96C165.01 632.323 164.631 632.611 164.162 632.824C163.703 633.027 163.212 633.128 162.69 633.128C161.996 633.128 161.372 632.984 160.818 632.696C160.274 632.408 159.842 631.981 159.522 631.416C159.212 630.851 159.058 630.168 159.058 629.368V624.184H160.866V629.096C160.866 629.885 161.063 630.493 161.458 630.92C161.852 631.336 162.391 631.544 163.074 631.544C163.756 631.544 164.295 631.336 164.69 630.92C165.095 630.493 165.298 629.885 165.298 629.096V624.184H167.122ZM171.352 625.464C171.619 625.016 171.971 624.669 172.408 624.424C172.856 624.168 173.384 624.04 173.992 624.04V625.928H173.528C172.813 625.928 172.269 626.109 171.896 626.472C171.533 626.835 171.352 627.464 171.352 628.36V633H169.528V624.184H171.352V625.464ZM189.409 621.88L185.233 633H183.121L178.929 621.88H180.881L184.177 631.128L187.489 621.88H189.409ZM191.862 623.016C191.532 623.016 191.254 622.904 191.03 622.68C190.806 622.456 190.694 622.179 190.694 621.848C190.694 621.517 190.806 621.24 191.03 621.016C191.254 620.792 191.532 620.68 191.862 620.68C192.182 620.68 192.454 620.792 192.678 621.016C192.902 621.24 193.014 621.517 193.014 621.848C193.014 622.179 192.902 622.456 192.678 622.68C192.454 622.904 192.182 623.016 191.862 623.016ZM192.758 624.184V633H190.934V624.184H192.758ZM196.977 625.464C197.244 625.016 197.596 624.669 198.033 624.424C198.481 624.168 199.009 624.04 199.617 624.04V625.928H199.153C198.438 625.928 197.894 626.109 197.521 626.472C197.158 626.835 196.977 627.464 196.977 628.36V633H195.153V624.184H196.977V625.464ZM203.422 625.672V630.552C203.422 630.883 203.496 631.123 203.646 631.272C203.806 631.411 204.072 631.48 204.446 631.48H205.566V633H204.126C203.304 633 202.675 632.808 202.238 632.424C201.8 632.04 201.582 631.416 201.582 630.552V625.672H200.542V624.184H201.582V621.992H203.422V624.184H205.566V625.672H203.422ZM215.231 624.184V633H213.407V631.96C213.119 632.323 212.74 632.611 212.271 632.824C211.812 633.027 211.322 633.128 210.799 633.128C210.106 633.128 209.482 632.984 208.927 632.696C208.383 632.408 207.951 631.981 207.631 631.416C207.322 630.851 207.167 630.168 207.167 629.368V624.184H208.975V629.096C208.975 629.885 209.172 630.493 209.567 630.92C209.962 631.336 210.5 631.544 211.183 631.544C211.866 631.544 212.404 631.336 212.799 630.92C213.204 630.493 213.407 629.885 213.407 629.096V624.184H215.231ZM217.03 628.552C217.03 627.667 217.211 626.883 217.574 626.2C217.947 625.517 218.448 624.989 219.078 624.616C219.718 624.232 220.422 624.04 221.19 624.04C221.883 624.04 222.486 624.179 222.998 624.456C223.52 624.723 223.936 625.059 224.246 625.464V624.184H226.086V633H224.246V631.688C223.936 632.104 223.515 632.451 222.982 632.728C222.448 633.005 221.84 633.144 221.158 633.144C220.4 633.144 219.707 632.952 219.078 632.568C218.448 632.173 217.947 631.629 217.574 630.936C217.211 630.232 217.03 629.437 217.03 628.552ZM224.246 628.584C224.246 627.976 224.118 627.448 223.862 627C223.616 626.552 223.291 626.211 222.886 625.976C222.48 625.741 222.043 625.624 221.574 625.624C221.104 625.624 220.667 625.741 220.262 625.976C219.856 626.2 219.526 626.536 219.27 626.984C219.024 627.421 218.902 627.944 218.902 628.552C218.902 629.16 219.024 629.693 219.27 630.152C219.526 630.611 219.856 630.963 220.262 631.208C220.678 631.443 221.115 631.56 221.574 631.56C222.043 631.56 222.48 631.443 222.886 631.208C223.291 630.973 223.616 630.632 223.862 630.184C224.118 629.725 224.246 629.192 224.246 628.584ZM230.305 621.16V633H228.481V621.16H230.305ZM240.488 621.88C241.672 621.88 242.707 622.109 243.592 622.568C244.488 623.016 245.176 623.667 245.656 624.52C246.147 625.363 246.392 626.349 246.392 627.48C246.392 628.611 246.147 629.592 245.656 630.424C245.176 631.256 244.488 631.896 243.592 632.344C242.707 632.781 241.672 633 240.488 633H236.856V621.88H240.488ZM240.488 631.512C241.79 631.512 242.787 631.16 243.48 630.456C244.174 629.752 244.52 628.76 244.52 627.48C244.52 626.189 244.174 625.181 243.48 624.456C242.787 623.731 241.79 623.368 240.488 623.368H238.68V631.512H240.488ZM252.024 633.144C251.192 633.144 250.44 632.957 249.768 632.584C249.096 632.2 248.568 631.667 248.184 630.984C247.8 630.291 247.608 629.491 247.608 628.584C247.608 627.688 247.805 626.893 248.2 626.2C248.595 625.507 249.133 624.973 249.816 624.6C250.499 624.227 251.261 624.04 252.104 624.04C252.947 624.04 253.709 624.227 254.392 624.6C255.075 624.973 255.613 625.507 256.008 626.2C256.403 626.893 256.6 627.688 256.6 628.584C256.6 629.48 256.397 630.275 255.992 630.968C255.587 631.661 255.032 632.2 254.328 632.584C253.635 632.957 252.867 633.144 252.024 633.144ZM252.024 631.56C252.493 631.56 252.931 631.448 253.336 631.224C253.752 631 254.088 630.664 254.344 630.216C254.6 629.768 254.728 629.224 254.728 628.584C254.728 627.944 254.605 627.405 254.36 626.968C254.115 626.52 253.789 626.184 253.384 625.96C252.979 625.736 252.541 625.624 252.072 625.624C251.603 625.624 251.165 625.736 250.76 625.96C250.365 626.184 250.051 626.52 249.816 626.968C249.581 627.405 249.464 627.944 249.464 628.584C249.464 629.533 249.704 630.269 250.184 630.792C250.675 631.304 251.288 631.56 252.024 631.56ZM257.795 628.584C257.795 627.677 257.976 626.883 258.339 626.2C258.712 625.507 259.224 624.973 259.875 624.6C260.526 624.227 261.272 624.04 262.115 624.04C263.182 624.04 264.062 624.296 264.755 624.808C265.459 625.309 265.934 626.029 266.179 626.968H264.211C264.051 626.531 263.795 626.189 263.443 625.944C263.091 625.699 262.648 625.576 262.115 625.576C261.368 625.576 260.771 625.843 260.323 626.376C259.886 626.899 259.667 627.635 259.667 628.584C259.667 629.533 259.886 630.275 260.323 630.808C260.771 631.341 261.368 631.608 262.115 631.608C263.171 631.608 263.87 631.144 264.211 630.216H266.179C265.923 631.112 265.443 631.827 264.739 632.36C264.035 632.883 263.16 633.144 262.115 633.144C261.272 633.144 260.526 632.957 259.875 632.584C259.224 632.2 258.712 631.667 258.339 630.984C257.976 630.291 257.795 629.491 257.795 628.584ZM270.125 625.672V630.552C270.125 630.883 270.2 631.123 270.349 631.272C270.509 631.411 270.776 631.48 271.149 631.48H272.269V633H270.829C270.008 633 269.378 632.808 268.941 632.424C268.504 632.04 268.285 631.416 268.285 630.552V625.672H267.245V624.184H268.285V621.992H270.125V624.184H272.269V625.672H270.125ZM277.774 633.144C276.942 633.144 276.19 632.957 275.518 632.584C274.846 632.2 274.318 631.667 273.934 630.984C273.55 630.291 273.358 629.491 273.358 628.584C273.358 627.688 273.555 626.893 273.95 626.2C274.345 625.507 274.883 624.973 275.566 624.6C276.249 624.227 277.011 624.04 277.854 624.04C278.697 624.04 279.459 624.227 280.142 624.6C280.825 624.973 281.363 625.507 281.758 626.2C282.153 626.893 282.35 627.688 282.35 628.584C282.35 629.48 282.147 630.275 281.742 630.968C281.337 631.661 280.782 632.2 280.078 632.584C279.385 632.957 278.617 633.144 277.774 633.144ZM277.774 631.56C278.243 631.56 278.681 631.448 279.086 631.224C279.502 631 279.838 630.664 280.094 630.216C280.35 629.768 280.478 629.224 280.478 628.584C280.478 627.944 280.355 627.405 280.11 626.968C279.865 626.52 279.539 626.184 279.134 625.96C278.729 625.736 278.291 625.624 277.822 625.624C277.353 625.624 276.915 625.736 276.51 625.96C276.115 626.184 275.801 626.52 275.566 626.968C275.331 627.405 275.214 627.944 275.214 628.584C275.214 629.533 275.454 630.269 275.934 630.792C276.425 631.304 277.038 631.56 277.774 631.56ZM285.977 625.464C286.244 625.016 286.596 624.669 287.033 624.424C287.481 624.168 288.009 624.04 288.617 624.04V625.928H288.153C287.438 625.928 286.894 626.109 286.521 626.472C286.158 626.835 285.977 627.464 285.977 628.36V633H284.153V624.184H285.977V625.464ZM291.03 633.112C290.699 633.112 290.422 633 290.198 632.776C289.974 632.552 289.862 632.275 289.862 631.944C289.862 631.613 289.974 631.336 290.198 631.112C290.422 630.888 290.699 630.776 291.03 630.776C291.35 630.776 291.622 630.888 291.846 631.112C292.07 631.336 292.182 631.613 292.182 631.944C292.182 632.275 292.07 632.552 291.846 632.776C291.622 633 291.35 633.112 291.03 633.112Z" fill="#FCFCFC"/>
        <g clip-path="url(#clip1_7_34)">
            <g clip-path="url(#clip2_7_34)">
                <path d="M278.189 211.614C289.058 204.734 294.499 192.577 297.865 180.767C301.232 168.956 303.201 156.576 309.582 145.895C313.158 139.985 317.968 134.798 323.73 130.637C329.492 126.476 336.091 123.425 343.139 121.664C361.731 117.115 383.299 122.568 394.098 138.018C406.932 156.38 398.582 179.304 383.154 193.862C370.018 206.256 351.665 213.148 333.078 215.263C314.491 217.378 295.604 215.015 277.397 210.948" fill="#F5D264"/>
                <path d="M318.849 218.193C306.801 218.193 293.697 216.654 279.195 213.549C278.698 213.772 278.131 213.823 277.596 213.692C277.062 213.56 276.596 213.256 276.283 212.833C275.791 212.583 275.414 212.175 275.221 211.686C275.029 211.196 275.035 210.659 275.237 210.173C275.439 209.688 275.825 209.287 276.322 209.045C276.819 208.804 277.393 208.738 277.938 208.861C278.041 208.884 278.145 208.907 278.247 208.93C286.096 203.384 291.642 194.206 295.628 180.22C296.432 177.397 297.172 174.479 297.887 171.656C300.185 162.591 302.561 153.218 307.558 144.855C314.878 132.602 327.96 123.157 342.548 119.587C352.323 117.21 362.623 117.456 372.253 120.298C382.371 123.34 390.596 129.063 396.038 136.848C402.352 145.882 404.233 156.599 401.479 167.842C399.057 177.73 393.134 187.506 384.802 195.367C372.233 207.227 353.964 215.05 333.359 217.395C328.544 217.935 323.699 218.201 318.849 218.193ZM283.888 210.117C302.342 213.785 318.391 214.769 332.796 213.131C352.368 210.904 369.666 203.525 381.505 192.354C389.243 185.053 394.735 176.01 396.968 166.89C399.439 156.804 397.775 147.225 392.157 139.188C387.301 132.239 379.925 127.121 370.829 124.385C362.043 121.795 352.646 121.571 343.728 123.742C330.334 127.019 318.325 135.691 311.605 146.938C306.918 154.78 304.617 163.859 302.392 172.639C301.67 175.49 300.922 178.438 300.102 181.317C297.617 190.028 293.311 201.949 283.888 210.117Z" fill="#F5D264"/>
            </g>
            <g clip-path="url(#clip3_7_34)">
                <path d="M225.259 295.796C225.185 295.796 225.111 295.792 225.037 295.785C224.464 295.731 223.938 295.468 223.575 295.055C223.211 294.641 223.04 294.111 223.098 293.58C224.805 278 232.115 261.144 243.15 247.334C249.632 239.223 256.221 233.57 263.293 230.051C266.684 228.364 270.44 226.873 274.073 225.431C275.898 224.706 277.622 224.021 279.288 223.319C279.812 223.098 280.409 223.079 280.948 223.267C281.487 223.454 281.924 223.832 282.162 224.318C282.4 224.803 282.421 225.357 282.218 225.856C282.016 226.356 281.609 226.761 281.085 226.982C279.375 227.702 277.548 228.427 275.782 229.127C272.236 230.535 268.569 231.991 265.345 233.595C258.849 236.827 252.729 242.103 246.638 249.727C236.054 262.973 229.048 279.105 227.417 293.986C227.363 294.482 227.112 294.941 226.714 295.276C226.315 295.61 225.797 295.795 225.259 295.796Z" fill="#2A3E3D"/>
                <path d="M217.745 342.031C204.942 342.031 193.618 338.276 185.58 331.307C173.998 321.264 166.837 305.63 166.425 289.487C165.933 270.227 174.643 252.64 189.157 243.587C205.132 233.624 228.23 234.838 242.888 246.411C243.326 246.757 243.598 247.25 243.644 247.782C243.69 248.314 243.506 248.841 243.133 249.247C242.759 249.653 242.228 249.905 241.654 249.948C241.08 249.991 240.512 249.82 240.073 249.474C226.845 239.03 205.997 237.934 191.58 246.926C178.283 255.22 170.307 271.491 170.764 289.392C171.149 304.48 177.797 319.05 188.545 328.37C196.413 335.191 207.903 338.589 220.895 337.928C233.065 337.311 245.084 333.006 253.045 326.408C264.446 316.959 272.551 302.259 275.867 285.017C278.963 268.917 277.679 251.372 272.343 236.882C272.157 236.377 272.196 235.824 272.449 235.345C272.703 234.866 273.152 234.5 273.697 234.328C274.242 234.156 274.838 234.191 275.355 234.426C275.872 234.661 276.266 235.077 276.452 235.582C282.017 250.697 283.362 268.973 280.141 285.723C278.459 294.47 275.627 302.584 271.723 309.84C267.544 317.607 262.232 324.19 255.939 329.407C247.137 336.703 234.451 341.272 221.133 341.946C219.993 342.004 218.864 342.032 217.745 342.031Z" fill="#2A3E3D"/>
                <path d="M217.045 506.547C216.531 506.547 216.034 506.378 215.642 506.069C195.301 490.066 186.551 462.604 194.114 438.91C177.805 421.849 166.224 401.461 161.454 381.381C155.863 357.843 159.793 335.641 172.82 317.176C173.135 316.73 173.629 316.418 174.192 316.308C174.756 316.199 175.343 316.302 175.825 316.594C176.306 316.886 176.643 317.344 176.761 317.866C176.879 318.388 176.768 318.932 176.453 319.379C164.079 336.917 160.358 358.058 165.692 380.516C170.383 400.262 181.914 420.346 198.16 437.069C198.414 437.33 198.589 437.648 198.669 437.991C198.749 438.333 198.731 438.69 198.616 439.024C190.933 461.461 199.089 487.769 218.45 503.002C218.789 503.268 219.031 503.625 219.144 504.023C219.257 504.421 219.236 504.842 219.083 505.229C218.929 505.615 218.652 505.949 218.287 506.185C217.923 506.42 217.489 506.547 217.045 506.547H217.045Z" fill="#2A3E3D"/>
                <path d="M246.606 520C246.21 520 245.821 519.899 245.483 519.708L229.784 510.884C229.354 510.642 229.028 510.269 228.862 509.829C228.695 509.388 228.699 508.908 228.873 508.47C240.114 480.136 247.763 450.687 251.666 420.715C254.351 400.067 252.342 383.952 249.438 365.029C249.259 363.886 247.29 356.332 246.421 354.227C246.044 353.939 245.782 353.542 245.679 353.099C245.576 352.657 245.637 352.195 245.852 351.789C249.799 344.292 251.982 336.103 252.254 327.764C252.27 327.231 252.515 326.725 252.933 326.359C253.352 325.993 253.91 325.796 254.486 325.811C255.061 325.826 255.606 326.053 256.001 326.441C256.396 326.829 256.609 327.346 256.592 327.88C256.314 336.375 254.182 344.731 250.325 352.441C250.514 352.857 250.672 353.314 250.835 353.779C251.182 354.779 251.596 356.133 252.063 357.802C252.859 360.651 253.628 363.776 253.734 364.464C255.333 374.879 256.5 383.649 257.003 392.597C257.568 402.141 257.224 411.712 255.975 421.199C252.103 450.929 244.583 480.152 233.56 508.3L247.734 516.268C248.139 516.496 248.453 516.84 248.627 517.249C248.802 517.658 248.827 518.108 248.699 518.531C248.571 518.954 248.297 519.327 247.919 519.592C247.541 519.857 247.079 520.001 246.605 520L246.606 520Z" fill="#2A3E3D"/>
                <path d="M187.943 438.445C187.772 438.445 187.601 438.426 187.435 438.389C173.829 435.343 160.982 429.903 149.589 422.365C138.748 415.239 128.802 406.106 120.027 395.219C102.914 373.987 91.543 348.377 87.1433 321.157C82.7437 293.936 85.5175 266.361 95.1666 241.413C101.519 224.99 111.687 209.87 123.799 198.838C137.121 186.704 152.529 179.669 168.494 178.402C168.79 173.155 170.746 168.105 174.118 163.882C179.62 157.013 188.717 152.283 199.078 150.908C214.03 148.923 229.66 154.1 239.871 164.415C246.358 170.969 250.566 179.605 251.718 188.731C251.785 189.261 251.622 189.794 251.265 190.213C250.909 190.631 250.387 190.901 249.815 190.963C249.243 191.025 248.668 190.874 248.217 190.543C247.765 190.212 247.474 189.729 247.407 189.199C246.36 180.906 242.548 173.071 236.672 167.135C232.006 162.511 226.215 158.988 219.783 156.858C213.351 154.728 206.463 154.054 199.692 154.891C190.47 156.115 182.418 160.266 177.603 166.28C174.82 169.757 173.166 173.899 172.837 178.218C178.566 178.245 182.757 179.561 185.605 182.22C187.955 184.414 188.975 188.009 188.144 191.165C187.465 193.74 185.657 195.639 183.184 196.372C180.789 197.083 178.255 196.671 175.858 195.182C173.871 193.903 172.253 192.19 171.148 190.196C169.799 187.773 168.944 185.141 168.628 182.43C153.764 183.669 139.363 190.302 126.841 201.707C115.185 212.323 105.386 226.907 99.2508 242.772C89.8448 267.096 87.1416 293.995 91.4356 320.56C95.7297 347.126 106.819 372.11 123.504 392.81C132.008 403.361 141.629 412.2 152.1 419.083C163.041 426.324 175.381 431.55 188.448 434.477C188.965 434.591 189.419 434.878 189.723 435.282C190.028 435.686 190.161 436.18 190.099 436.669C190.037 437.158 189.783 437.61 189.386 437.937C188.988 438.265 188.475 438.445 187.943 438.445ZM172.964 182.242C173.248 184.367 173.936 186.429 174.996 188.332C176.459 190.926 179.362 193.285 181.863 192.541C183.165 192.155 183.705 191.061 183.929 190.211C184.408 188.393 183.831 186.273 182.527 185.055C180.545 183.205 177.405 182.279 172.964 182.242Z" fill="#4C9D80"/>
                <path d="M247.352 234.485H204.252C201.118 234.482 198.114 233.327 195.897 231.272C193.681 229.218 192.435 226.432 192.431 223.527V201.502C192.435 198.596 193.681 195.811 195.897 193.757C198.114 191.702 201.118 190.547 204.252 190.543H247.352C250.486 190.547 253.491 191.702 255.707 193.757C257.924 195.811 259.17 198.596 259.174 201.502V223.527C259.17 226.433 257.924 229.218 255.707 231.272C253.491 233.327 250.486 234.482 247.352 234.485ZM204.252 194.567C202.269 194.569 200.368 195.3 198.965 196.6C197.563 197.9 196.774 199.663 196.771 201.502V223.527C196.774 225.366 197.563 227.128 198.965 228.429C200.368 229.729 202.269 230.46 204.252 230.462H247.352C249.336 230.46 251.237 229.729 252.64 228.429C254.042 227.129 254.831 225.366 254.833 223.527V201.502C254.831 199.663 254.042 197.9 252.64 196.6C251.237 195.3 249.336 194.569 247.352 194.567H204.252Z" fill="#2A3E3D"/>
                <path d="M240.481 212.918C239.33 212.918 238.226 212.494 237.412 211.739C236.598 210.985 236.141 209.962 236.141 208.894V205.666C236.141 204.599 236.598 203.575 237.412 202.821C238.226 202.066 239.33 201.642 240.481 201.642C241.632 201.642 242.736 202.066 243.55 202.821C244.364 203.575 244.821 204.599 244.821 205.666V208.894C244.821 209.962 244.364 210.985 243.55 211.739C242.736 212.494 241.632 212.918 240.481 212.918Z" fill="#2A3E3D"/>
                <path d="M211.008 212.918C209.857 212.918 208.753 212.494 207.939 211.739C207.125 210.985 206.668 209.962 206.668 208.894V205.666C206.668 204.599 207.125 203.575 207.939 202.821C208.753 202.066 209.857 201.642 211.008 201.642C212.159 201.642 213.263 202.066 214.077 202.821C214.891 203.575 215.349 204.599 215.349 205.666V208.894C215.349 209.962 214.891 210.985 214.077 211.739C213.263 212.494 212.159 212.918 211.008 212.918Z" fill="#2A3E3D"/>
                <path d="M229.017 223.484H221.599C220.448 223.484 219.344 223.06 218.53 222.306C217.716 221.551 217.258 220.528 217.258 219.461C217.258 218.394 217.716 217.371 218.53 216.616C219.344 215.862 220.448 215.438 221.599 215.438H229.017C230.168 215.438 231.272 215.862 232.086 216.616C232.9 217.371 233.357 218.394 233.357 219.461C233.357 220.528 232.9 221.551 232.086 222.306C231.272 223.06 230.168 223.484 229.017 223.484Z" fill="#2A3E3D"/>
                <path d="M258.92 220.439C258.517 220.439 258.114 220.414 257.714 220.365C257.143 220.295 256.627 220.017 256.277 219.593C255.927 219.169 255.774 218.634 255.85 218.105C255.926 217.576 256.226 217.097 256.683 216.773C257.141 216.449 257.718 216.307 258.289 216.377C259.122 216.456 259.963 216.372 260.759 216.129C261.554 215.887 262.286 215.493 262.906 214.972C264.066 214.03 264.729 212.818 264.729 211.646C264.729 210.474 264.062 209.262 262.901 208.322C262.279 207.801 261.547 207.407 260.751 207.166C259.955 206.925 259.113 206.842 258.28 206.922C257.997 206.959 257.709 206.943 257.432 206.877C257.155 206.81 256.895 206.693 256.667 206.533C256.439 206.373 256.247 206.173 256.103 205.944C255.959 205.715 255.865 205.462 255.827 205.199C255.788 204.936 255.807 204.669 255.88 204.413C255.954 204.156 256.081 203.916 256.255 203.706C256.429 203.495 256.646 203.319 256.894 203.186C257.142 203.054 257.416 202.969 257.7 202.935C260.49 202.586 263.502 203.467 265.756 205.292C267.86 206.995 269.068 209.31 269.07 211.643C269.072 213.975 267.867 216.292 265.766 217.998C263.873 219.545 261.444 220.412 258.92 220.439Z" fill="#2A3E3D"/>
                <path d="M192.513 220.439C189.99 220.412 187.56 219.546 185.668 217.998C183.566 216.292 182.362 213.975 182.364 211.641C182.366 209.308 183.574 206.994 185.678 205.29C187.932 203.466 190.943 202.585 193.734 202.933C194.019 202.966 194.294 203.05 194.544 203.182C194.793 203.314 195.012 203.49 195.188 203.7C195.363 203.911 195.492 204.152 195.566 204.409C195.64 204.666 195.659 204.934 195.621 205.198C195.582 205.462 195.488 205.716 195.343 205.946C195.198 206.176 195.005 206.376 194.776 206.537C194.547 206.697 194.285 206.813 194.007 206.879C193.729 206.945 193.439 206.959 193.155 206.92C192.322 206.84 191.48 206.923 190.684 207.165C189.888 207.406 189.156 207.8 188.535 208.321C187.373 209.259 186.707 210.472 186.706 211.645C186.704 212.817 187.369 214.029 188.529 214.97C189.149 215.491 189.881 215.886 190.676 216.128C191.472 216.37 192.313 216.454 193.146 216.376C193.717 216.305 194.294 216.448 194.751 216.772C195.209 217.095 195.508 217.575 195.585 218.103C195.661 218.632 195.507 219.167 195.158 219.591C194.808 220.015 194.291 220.293 193.721 220.364C193.321 220.414 192.917 220.439 192.513 220.439Z" fill="#2A3E3D"/>
                <path d="M261.388 205.329C260.812 205.329 260.26 205.117 259.853 204.74C259.446 204.363 259.218 203.851 259.218 203.317V188.935C259.218 188.402 259.446 187.89 259.853 187.513C260.26 187.135 260.812 186.924 261.388 186.924C261.964 186.924 262.515 187.135 262.922 187.513C263.329 187.89 263.558 188.402 263.558 188.935V203.317C263.558 203.851 263.329 204.363 262.922 204.74C262.515 205.117 261.964 205.329 261.388 205.329Z" fill="#2A3E3D"/>
                <path d="M261.479 190.978C259.491 190.978 257.526 190.034 256.601 188.424C256.184 187.711 255.991 186.904 256.042 186.094C256.094 185.284 256.389 184.504 256.894 183.842C258.131 182.125 260.495 181.063 262.641 181.257C263.501 181.325 264.323 181.616 265.015 182.095C265.706 182.574 266.24 183.222 266.555 183.967C267.061 185.153 267.076 186.471 266.596 187.666C266.117 188.861 265.177 189.849 263.958 190.44C263.189 190.798 262.34 190.982 261.479 190.978ZM260.432 186.533C260.625 186.868 261.481 187.095 261.994 186.853C262.239 186.724 262.429 186.52 262.53 186.276C262.631 186.032 262.637 185.763 262.549 185.515C262.448 185.291 262.371 185.274 262.22 185.261C261.885 185.264 261.555 185.339 261.257 185.481C260.959 185.623 260.7 185.827 260.502 186.078C260.318 186.334 260.376 186.435 260.432 186.534L260.432 186.533Z" fill="#2A3E3D"/>
            </g>
            <g clip-path="url(#clip4_7_34)">
                <path d="M322.265 163.55C317.074 163.305 313.855 166.193 312.961 169.167C311.96 172.496 313.641 175.879 317.146 177.584H317.148C318.548 178.285 320.113 178.66 321.708 178.676C323.739 178.676 325.701 178.003 327.235 176.78C330.005 174.613 331.198 171.092 330.138 168.218C329.112 165.441 326.243 163.739 322.265 163.55Z" fill="#2A3E3D"/>
                <path d="M349.299 163.55C344.107 163.305 340.889 166.193 339.995 169.167C338.993 172.496 340.675 175.879 344.18 177.584C345.58 178.285 347.146 178.66 348.74 178.676C350.771 178.676 352.733 178.003 354.267 176.78C357.037 174.613 358.23 171.092 357.17 168.218C356.146 165.441 353.277 163.739 349.299 163.55Z" fill="#2A3E3D"/>
                <path d="M384.204 168.218C383.179 165.441 380.309 163.739 376.332 163.55C371.141 163.305 367.922 166.193 367.027 169.167C366.026 172.496 367.708 175.879 371.212 177.584C372.612 178.285 374.178 178.66 375.772 178.676C377.803 178.676 379.766 178.003 381.299 176.78C384.071 174.613 385.265 171.091 384.204 168.218Z" fill="#2A3E3D"/>
            </g>
        </g>
    </g>
    <defs>
        <clipPath id="clip0_7_34">
            <rect width="430" height="932" fill="white"/>
        </clipPath>
        <clipPath id="clip1_7_34">
            <rect width="578" height="402" fill="white" transform="translate(-63 118)"/>
        </clipPath>
        <clipPath id="clip2_7_34">
            <rect width="127.521" height="100.165" fill="white" transform="translate(275.13 118)"/>
        </clipPath>
        <clipPath id="clip3_7_34">
            <rect width="196.881" height="369.505" fill="white" transform="translate(85.1123 150.495)"/>
        </clipPath>
        <clipPath id="clip4_7_34">
            <rect width="71.5275" height="15.075" fill="white" transform="translate(312.7 163.56)"/>
        </clipPath>
    </defs>
</svg>
