<svg width="578" height="402" viewBox="0 0 578 402" fill="none" xmlns="http://www.w3.org/2000/svg">
    <g clip-path="url(#clip0_7_59)">
        <g clip-path="url(#clip1_7_59)">
            <path d="M341.189 93.614C352.058 86.7337 357.499 74.5773 360.865 62.7668C364.232 50.9564 366.201 38.5759 372.582 27.8945C376.158 21.985 380.968 16.7979 386.73 12.637C392.492 8.47622 399.091 5.42546 406.139 3.66357C424.731 -0.885032 446.299 4.56837 457.098 20.018C469.932 38.38 461.582 61.3038 446.154 75.8616C433.018 88.2557 414.665 95.1484 396.078 97.263C377.491 99.3776 358.604 97.0153 340.397 92.9484" fill="#F5D264"/>
            <path d="M381.849 100.193C369.801 100.193 356.697 98.6539 342.195 95.5488C341.698 95.7723 341.131 95.8229 340.596 95.6916C340.062 95.5602 339.596 95.2556 339.283 94.8328C338.791 94.5825 338.414 94.1749 338.221 93.6857C338.029 93.1965 338.035 92.659 338.237 92.1734C338.439 91.6877 338.825 91.2869 339.322 91.0455C339.819 90.804 340.393 90.7385 340.938 90.861C341.041 90.8842 341.145 90.9074 341.247 90.93C349.096 85.3844 354.642 76.2056 358.628 62.2198C359.432 59.3974 360.172 56.4785 360.887 53.6559C363.185 44.5913 365.561 35.218 370.558 26.8551C377.878 14.6022 390.96 5.15696 405.548 1.58676C415.323 -0.790036 425.623 -0.543535 435.253 2.29765C445.371 5.34027 453.596 11.0635 459.038 18.8483C465.352 27.8817 467.233 38.5994 464.479 49.8425C462.057 59.7305 456.134 69.5059 447.802 77.3673C435.233 89.2273 416.964 97.0502 396.359 99.3945C391.544 99.9347 386.699 100.201 381.849 100.193ZM346.888 92.1167C365.342 95.7854 381.391 96.7692 395.796 95.1312C415.368 92.904 432.666 85.5253 444.505 74.3544C452.243 67.0534 457.735 58.0097 459.968 48.8896C462.439 38.8039 460.775 29.225 455.157 21.1878C450.301 14.239 442.925 9.1207 433.829 6.38512C425.043 3.79465 415.646 3.57149 406.728 5.74154C393.334 9.01873 381.325 17.6906 374.605 28.9377C369.918 36.7801 367.617 45.8587 365.392 54.6386C364.67 57.4898 363.922 60.438 363.102 63.317C360.617 72.0284 356.311 83.9492 346.888 92.1167Z" fill="#F5D264"/>
        </g>
        <!-- Add more paths and shapes here -->
    </g>
    <!-- Clip paths and other definitions -->
    <defs>
        <clipPath id="clip0_7_59">
            <rect width="578" height="402" fill="white"/>
        </clipPath>
        <clipPath id="clip1_7_59">
            <rect width="133.399" height="96.8366" fill="white" transform="translate(326.028 3.34766)"/>
        </clipPath>
        <!-- Add additional clip paths or definitions here -->
    </defs>
</svg>